<svg width="35" height="43" viewBox="0 0 35 43" fill="none" xmlns="http://www.w3.org/2000/svg">
<path fill-rule="evenodd" clip-rule="evenodd" d="M14.4534 0.611413C15.1648 -0.0980137 16.318 -0.0980094 17.0294 0.611422L32.8639 16.4038C35.4453 18.9783 35.4453 23.1804 32.8639 25.7549L17.0294 41.5473C16.318 42.2567 15.1647 42.2567 14.4534 41.5473C13.7421 40.8379 13.7421 39.6876 14.4534 38.9782L30.288 23.1858L31.5759 24.4704L30.288 23.1858C31.4467 22.0302 31.4467 20.1285 30.288 18.9729L31.5002 17.7639L30.288 18.9729L14.4534 3.18048C13.7421 2.47105 13.7421 1.32084 14.4534 0.611413Z" fill="#3754F5"/>
<path fill-rule="evenodd" clip-rule="evenodd" d="M0.5335 0.531823C1.24483 -0.177604 2.39812 -0.177599 3.10944 0.531833L18.944 16.3243C21.5253 18.8987 21.5253 23.1008 18.944 25.6753L3.10944 41.4677C2.39812 42.1771 1.24483 42.1771 0.533498 41.4677C-0.17783 40.7583 -0.177833 39.608 0.533492 38.8986L16.368 23.1063L17.656 24.3908L16.368 23.1062C17.5267 21.9506 17.5267 20.0489 16.368 18.8933L17.5802 17.6843L16.368 18.8933L0.53349 3.10089C-0.177834 2.39146 -0.17783 1.24125 0.5335 0.531823Z" fill="#3754F5"/>
</svg>
