<svg width="50" height="50" viewBox="0 0 50 50" fill="none" xmlns="http://www.w3.org/2000/svg">
<path d="M25 50C38.785 50 50 38.785 50 25C50 11.215 38.785 0 25 0C11.215 0 0 11.215 0 25C0 38.785 11.215 50 25 50ZM25 2.9579C37.1541 2.9579 47.0421 12.8459 47.0421 25C47.0421 37.1541 37.1541 47.0421 25 47.0421C12.8459 47.0421 2.9579 37.1541 2.9579 25C2.9579 12.8459 12.8459 2.9579 25 2.9579Z" fill="#F5F5F5"/>
<path d="M26.5603 31.519C26.7395 31.5905 26.9244 31.6242 27.1063 31.6242C27.6944 31.6242 28.2504 31.271 28.481 30.6913L32.574 20.4009C32.8758 19.6419 32.5052 18.7819 31.7464 18.48C30.9877 18.1783 30.1274 18.5487 29.8255 19.3078L25.7325 29.5982C25.4307 30.3572 25.8013 31.2172 26.5603 31.519Z" fill="#F5F5F5"/>
<path d="M34.9183 21.3341H38.3139L34.7019 29.5505C34.3731 30.2983 34.7128 31.1708 35.4606 31.4996C35.6543 31.5848 35.8562 31.6252 36.0551 31.6252C36.6239 31.625 37.1663 31.2951 37.4097 30.7411L41.9335 20.4505C42.1345 19.9931 42.0912 19.4653 41.8181 19.047C41.545 18.6286 41.0793 18.3765 40.5797 18.3765H34.9184C34.1017 18.3765 33.4395 19.0387 33.4395 19.8554C33.4393 20.6718 34.1014 21.3341 34.9183 21.3341V21.3341Z" fill="#F5F5F5"/>
<path d="M15.9867 27.8595C16.2527 28.3102 16.7369 28.5866 17.2602 28.5866H20.9173C20.9132 29.1317 20.9089 29.6539 20.9048 30.1321C20.8978 30.9489 21.5543 31.6167 22.371 31.6238H22.384C23.1948 31.6238 23.8556 30.9699 23.8627 30.1575C23.8661 29.7705 23.8705 29.2212 23.8755 28.5787C24.6203 28.502 25.2014 27.8727 25.2014 27.1076C25.2014 26.3492 24.6307 25.7242 23.8952 25.6386C23.9085 23.2313 23.9135 20.8078 23.8834 20.4448C23.8042 19.4937 23.2233 18.7153 22.4034 18.4613C21.5846 18.2081 20.7237 18.5136 20.1001 19.2788C19.5144 19.9972 17.0135 24.4935 15.9654 26.3932C15.7125 26.8515 15.7206 27.4089 15.9867 27.8595V27.8595ZM20.946 23.5635C20.9438 24.2022 20.9407 24.9052 20.9367 25.6287H19.7757C20.1867 24.8965 20.5862 24.1909 20.946 23.5635V23.5635Z" fill="#F5F5F5"/>
<path d="M15.0925 31.7014C15.9091 31.6912 16.5628 31.0207 16.5526 30.204C16.5426 29.3937 15.8824 28.7437 15.0743 28.7437C15.0679 28.7437 15.0616 28.7437 15.0552 28.7438C14.2455 28.7539 13.3948 28.7614 12.6262 28.7651C13.1583 28.0447 13.8414 27.1007 14.7044 25.8677C15.3851 24.8952 15.8302 23.9705 16.0275 23.1197C16.076 22.931 16.1162 22.664 16.1166 22.3876C16.1199 20.1201 14.2719 18.2754 12.0044 18.2754C10.0439 18.2754 8.34712 19.6703 7.9694 21.5921C7.81204 22.3935 8.33396 23.1709 9.13555 23.3284C9.93759 23.4862 10.7145 22.9638 10.8718 22.1622C10.9776 21.6239 11.454 21.2333 12.0044 21.2333C12.6157 21.2333 13.1173 21.711 13.1562 22.3125L13.1303 22.5149C13.042 22.8523 12.8218 23.3989 12.2811 24.1715C10.6547 26.4952 9.68454 27.7655 9.16336 28.4479C8.49502 29.323 8.12691 29.805 8.37286 30.6054C8.51765 31.0758 8.88709 31.4512 9.36228 31.6097C9.55972 31.6755 9.71781 31.7282 11.7376 31.7282C12.5306 31.7281 13.6106 31.7201 15.0925 31.7014V31.7014Z" fill="#F5F5F5"/>
</svg>
