<svg width="50" height="50" viewBox="0 0 50 50" fill="none" xmlns="http://www.w3.org/2000/svg">
<path d="M36.1387 34.9092C34.207 33.6484 31.6514 32.7471 28.835 32.3184C32.5977 27.3008 38.2812 18.9199 38.2812 14.0625C38.2812 6.73926 32.3232 0.78125 25 0.78125C17.6768 0.78125 11.7188 6.73926 11.7188 14.0625C11.7188 18.9199 17.4023 27.3008 21.165 32.3184C18.3486 32.7471 15.793 33.6484 13.8613 34.9092C11.4727 36.4678 10.1562 38.498 10.1562 40.625C10.1562 43.0078 11.7617 45.2129 14.6768 46.832C17.4473 48.3711 21.1133 49.2188 25 49.2188C28.8867 49.2188 32.5527 48.3711 35.3232 46.832C38.2383 45.2129 39.8438 43.0078 39.8438 40.625C39.8438 38.498 38.5273 36.4678 36.1387 34.9092ZM19.3896 27.1396C15.3936 21.248 13.2812 16.7266 13.2812 14.0625C13.2812 10.9545 14.5159 7.97378 16.7136 5.77609C18.9113 3.5784 21.892 2.34375 25 2.34375C28.108 2.34375 31.0887 3.5784 33.2864 5.77609C35.4841 7.97378 36.7187 10.9545 36.7188 14.0625C36.7188 16.7266 34.6064 21.248 30.6104 27.1396C28.3447 30.4805 26.0547 33.3926 25 34.7012C23.9453 33.3926 21.6553 30.4805 19.3896 27.1396ZM34.5645 45.4658C32.0225 46.8789 28.626 47.6562 25 47.6562C21.374 47.6562 17.9775 46.8789 15.4355 45.4658C13.0391 44.1348 11.7188 42.415 11.7188 40.625C11.7188 37.3506 16.2178 34.4355 22.2539 33.748C23.4385 35.2803 24.2725 36.2852 24.4004 36.4385C24.4737 36.5263 24.5654 36.5969 24.669 36.6453C24.7726 36.6938 24.8856 36.7189 25 36.7189C25.1144 36.7189 25.2274 36.6938 25.331 36.6453C25.4346 36.5969 25.5263 36.5263 25.5996 36.4385C25.7275 36.2852 26.5615 35.2803 27.7461 33.748C33.7822 34.4355 38.2812 37.3506 38.2812 40.625C38.2812 42.415 36.9609 44.1348 34.5645 45.4658Z" fill="#F5F5F5"/>
<path d="M33.5938 13.2813C33.5938 11.5816 33.0897 9.92006 32.1454 8.50682C31.2012 7.09359 29.859 5.9921 28.2887 5.34166C26.7184 4.69122 24.9905 4.52104 23.3234 4.85263C21.6564 5.18422 20.1252 6.0027 18.9233 7.20456C17.7214 8.40641 16.903 9.93767 16.5714 11.6047C16.2398 13.2717 16.41 14.9996 17.0604 16.5699C17.7109 18.1402 18.8123 19.4824 20.2256 20.4267C21.6388 21.371 23.3003 21.875 25 21.875C27.2784 21.8724 29.4628 20.9662 31.0738 19.3551C32.6849 17.744 33.5912 15.5597 33.5938 13.2813ZM17.9688 13.2813C17.9688 11.8906 18.3811 10.5312 19.1537 9.3749C19.9263 8.21862 21.0245 7.3174 22.3093 6.78523C23.5941 6.25305 25.0078 6.11381 26.3717 6.38511C27.7357 6.65641 28.9885 7.32607 29.9718 8.30941C30.9552 9.29275 31.6248 10.5456 31.8962 11.9095C32.1675 13.2735 32.0282 14.6872 31.496 15.972C30.9639 17.2568 30.0626 18.3549 28.9064 19.1275C27.7501 19.9001 26.3907 20.3125 25 20.3125C23.1358 20.3104 21.3486 19.5689 20.0305 18.2508C18.7123 16.9326 17.9708 15.1454 17.9688 13.2813V13.2813Z" fill="#F5F5F5"/>
</svg>
