<svg width="50" height="50" viewBox="0 0 50 50" fill="none" xmlns="http://www.w3.org/2000/svg">
<g clip-path="url(#clip0_95_720)">
<path d="M10.1882 33.2366C15.1199 39.1318 21.0565 43.7733 27.8323 47.0576C30.412 48.2802 33.8621 49.7306 37.7059 49.9793C37.9442 49.9896 38.1721 50 38.4104 50C40.9902 50 43.0623 49.109 44.751 47.2752C44.7614 47.2648 44.7821 47.2441 44.7925 47.2234C45.3934 46.4981 46.0772 45.8454 46.7921 45.1513C47.279 44.685 47.7763 44.1981 48.2529 43.7008C50.4597 41.4007 50.4597 38.4791 48.2322 36.2516L42.0055 30.0249C40.9487 28.9266 39.6847 28.3465 38.3586 28.3465C37.0324 28.3465 35.7581 28.9266 34.6702 30.0145L30.9611 33.7236C30.6192 33.5267 30.267 33.3506 29.9354 33.1848C29.521 32.9776 29.1377 32.7808 28.7958 32.5632C25.4182 30.4186 22.3515 27.6212 19.4195 24.0261C17.9379 22.1508 16.9433 20.576 16.2492 18.9702C17.2231 18.0895 18.1348 17.1674 19.0154 16.2661C19.3263 15.9449 19.6474 15.6237 19.9686 15.3025C21.0875 14.1836 21.6885 12.8885 21.6885 11.5727C21.6885 10.2569 21.0979 8.96187 19.9686 7.84293L16.8812 4.75549C16.5185 4.39287 16.1766 4.04061 15.8244 3.67799C15.1406 2.97348 14.4257 2.24824 13.7212 1.59552C12.6541 0.549109 11.4004 0 10.0743 0C8.75849 0 7.49451 0.549109 6.38593 1.60588L2.51108 5.48073C1.10205 6.88976 0.304287 8.59925 0.138518 10.5781C-0.058332 13.0543 0.397532 15.6859 1.57863 18.8666C3.39173 23.7878 6.12691 28.3568 10.1882 33.2366ZM2.66649 10.7957C2.79082 9.41774 3.31921 8.26772 4.31382 7.2731L8.16794 3.41898C8.76885 2.83879 9.43193 2.53833 10.0743 2.53833C10.7063 2.53833 11.3486 2.83879 11.9392 3.4397C12.6333 4.08206 13.2861 4.75549 13.9906 5.47037C14.3428 5.83299 14.7054 6.19561 15.0681 6.56859L18.1555 9.65603C18.7979 10.2984 19.1294 10.9511 19.1294 11.5935C19.1294 12.2358 18.7979 12.8885 18.1555 13.5309C17.8343 13.8521 17.5132 14.1836 17.192 14.5048C16.2284 15.4787 15.3271 16.4007 14.3325 17.2814C14.3117 17.3021 14.3014 17.3125 14.2807 17.3332C13.4207 18.1931 13.5554 19.0116 13.7626 19.6332C13.773 19.6643 13.7834 19.685 13.7937 19.7161C14.5915 21.6328 15.7001 23.4563 17.4303 25.632C20.5384 29.4654 23.8124 32.4389 27.4178 34.7286C27.8633 35.0187 28.3399 35.2466 28.7854 35.4745C29.1998 35.6817 29.5832 35.8786 29.9251 36.0961C29.9665 36.1169 29.9976 36.1376 30.0391 36.1583C30.381 36.3344 30.7125 36.4173 31.044 36.4173C31.8729 36.4173 32.4116 35.8889 32.5877 35.7128L36.4626 31.838C37.0635 31.237 37.7162 30.9159 38.3586 30.9159C39.146 30.9159 39.7883 31.4028 40.1924 31.838L46.4398 38.075C47.6831 39.3183 47.6727 40.6651 46.4087 41.9809C45.9736 42.4472 45.5177 42.8927 45.0308 43.3589C44.3055 44.0634 43.5492 44.7886 42.8654 45.6071C41.6739 46.8918 40.2546 47.4927 38.4207 47.4927C38.2446 47.4927 38.0581 47.4824 37.882 47.472C34.4837 47.2545 31.3238 45.9283 28.9512 44.799C22.5069 41.6805 16.8501 37.2565 12.1568 31.6411C8.29227 26.9892 5.69177 22.6585 3.97192 18.017C2.90478 15.1678 2.50072 12.8782 2.66649 10.7957Z" fill="#F5F5F5"/>
</g>
<defs>
<clipPath id="clip0_95_720">
<rect width="50" height="50" fill="white"/>
</clipPath>
</defs>
</svg>
