<svg width="42" height="36" viewBox="0 0 42 36" fill="none" xmlns="http://www.w3.org/2000/svg">
<path fill-rule="evenodd" clip-rule="evenodd" d="M0.532067 20.9464C-0.177359 20.2351 -0.177355 19.0818 0.532077 18.3705L16.3245 2.53594C18.899 -0.045423 23.1011 -0.045423 25.6756 2.53594L41.4679 18.3705C42.1774 19.0818 42.1774 20.2351 41.4679 20.9464C40.7585 21.6577 39.6083 21.6578 38.8989 20.9464L23.1065 5.11189L24.391 3.82391L23.1065 5.11188C21.9509 3.95317 20.0492 3.95317 18.8936 5.11188L17.6846 3.89968L18.8936 5.11189L3.10114 20.9464C2.39171 21.6578 1.24149 21.6577 0.532067 20.9464Z" fill="#F5F5F5"/>
<path fill-rule="evenodd" clip-rule="evenodd" d="M0.532067 34.8665C-0.177359 34.1552 -0.177355 33.0019 0.532077 32.2906L16.3245 16.456C18.899 13.8747 23.1011 13.8747 25.6756 16.456L41.4679 32.2906C42.1774 33.0019 42.1774 34.1552 41.4679 34.8665C40.7585 35.5779 39.6083 35.5779 38.8989 34.8665L23.1065 19.032L24.391 17.744L23.1065 19.032C21.9509 17.8733 20.0492 17.8733 18.8936 19.032L17.6846 17.8198L18.8936 19.032L3.10114 34.8665C2.39171 35.5779 1.24149 35.5779 0.532067 34.8665Z" fill="#F5F5F5"/>
</svg>
